# xmcd
#
# Track frame offsets: 
#        150
#        15510
#        27462
#        42114
#        55014
#        65811
#        77188
#        91055
#        102446
#        112854
#        125741
#        137306
#        147783
#        159352
#        172144
#
# Disc length: 2448 seconds
#
# Revision: 3
# Processed by: cddbd v1.5.2PL0 Copyright (c) Steve Scherf et al.
# Submitted via: ExactAudioCopy v0.99pb5
#
DISCID=c1098e0f
DTITLE=Various Artist - Classic Country - TL 626-18 - 1966 - 1969 - CD 2
DYEAR=2001
DGENRE=Country
TTITLE0=Jim Reeves - Blue side of lonesome
TTITLE1=Henson Cargill - Skip a rope
TTITLE2=Jeannie Seely - Don't touch me
TTITLE3=Porter Wagoner - The Carroll county accident
TTITLE4=Charley Pride - The easy part's over
TTITLE5=George Jones - I'll share my world with you
TTITLE6=Tom T. Hall - A week in a country jail
TTITLE7=Sonny James - Take good care of her
TTITLE8=David Houston - Baby, baby (I know you're a lady)
TTITLE9=Connie Smith - The hurtin's all over
TTITLE10=Jack Greene - Until my dreams come true
TTITLE11=Bill Anderson - I get the fever
TTITLE12=Bill Phillips - Put it off until tomorrow
TTITLE13=Conway Twitty - Next in line
TTITLE14=Wynn Steward - It's such a pretty world today
EXTD=YEAR: 2001 ID3G: 2
EXTT0=
EXTT1=
EXTT2=
EXTT3=
EXTT4=
EXTT5=
EXTT6=
EXTT7=
EXTT8=
EXTT9=
EXTT10=
EXTT11=
EXTT12=
EXTT13=
EXTT14=
PLAYORDER=
